<?xml version="1.0" encoding="utf-8"?>
<!-- Generator: Adobe Illustrator 22.1.0, SVG Export Plug-In . SVG Version: 6.00 Build 0)  -->
<svg version="1.1" id="Layer_1" xmlns="http://www.w3.org/2000/svg" xmlns:xlink="http://www.w3.org/1999/xlink" x="0px" y="0px"
	 viewBox="0 0 64 64" style="enable-background:new 0 0 64 64;" xml:space="preserve">
<g>
	<g>
		<g>
			<path d="M28.9,28.5c-4.8,0-8.6,3.9-8.6,8.6s3.9,8.6,8.6,8.6s8.6-3.9,8.6-8.6S33.7,28.5,28.9,28.5z M32.6,41.1
				c-0.2,0.5-0.5,0.8-1,1.2c-0.4,0.3-0.9,0.5-1.5,0.7c-0.2,0.1-0.5,0.1-0.7,0.1v1h-1.3v-0.9c-0.3,0-0.7,0-1-0.1
				c-0.4-0.1-0.7-0.1-1-0.2c-0.3-0.1-0.5-0.2-0.7-0.3s-0.3-0.2-0.4-0.3s-0.2-0.2-0.2-0.4s-0.1-0.4-0.1-0.8c0-0.2,0-0.4,0-0.6
				c0-0.1,0-0.3,0.1-0.3c0-0.1,0.1-0.1,0.1-0.2c0,0,0.1,0,0.2,0s0.2,0,0.4,0.1c0.2,0.1,0.4,0.2,0.6,0.3c0.3,0.1,0.6,0.2,0.9,0.3
				s0.7,0.2,1.2,0.2c0.3,0,0.5,0,0.7-0.1s0.4-0.1,0.6-0.2c0.2-0.1,0.3-0.2,0.4-0.4s0.1-0.3,0.1-0.6c0-0.2-0.1-0.4-0.2-0.6
				c-0.1-0.2-0.3-0.3-0.6-0.4c-0.2-0.1-0.5-0.2-0.8-0.4c-0.3-0.1-0.6-0.2-0.9-0.4c-0.3-0.1-0.6-0.3-0.9-0.5s-0.6-0.4-0.8-0.6
				c-0.2-0.3-0.4-0.6-0.6-0.9C25.1,35.4,25,35,25,34.5s0.1-1,0.3-1.4c0.2-0.4,0.5-0.8,0.9-1.1c0.4-0.3,0.8-0.5,1.4-0.7
				c0.2-0.1,0.5-0.1,0.8-0.2v-1h1.3V31c0.2,0,0.5,0,0.7,0.1c0.3,0,0.6,0.1,0.9,0.2s0.5,0.2,0.6,0.2c0.2,0.1,0.3,0.2,0.4,0.2
				c0.1,0.1,0.1,0.1,0.2,0.2c0,0.1,0.1,0.1,0.1,0.2s0,0.2,0,0.3s0,0.3,0,0.5s0,0.4,0,0.5s0,0.2-0.1,0.3c0,0.1-0.1,0.1-0.1,0.2
				c0,0-0.1,0-0.2,0c-0.1,0-0.2,0-0.3-0.1c-0.2-0.1-0.3-0.2-0.6-0.3c-0.2-0.1-0.5-0.2-0.8-0.3s-0.6-0.1-1-0.1c-0.3,0-0.5,0-0.7,0.1
				s-0.4,0.1-0.5,0.2c-0.1,0.1-0.2,0.2-0.3,0.4c-0.1,0.1-0.1,0.3-0.1,0.4c0,0.2,0.1,0.5,0.2,0.6c0.2,0.2,0.3,0.3,0.6,0.4
				c0.2,0.1,0.5,0.2,0.8,0.4c0.3,0.1,0.6,0.2,1,0.4c0.3,0.1,0.6,0.3,1,0.5c0.3,0.2,0.6,0.4,0.8,0.6c0.2,0.3,0.4,0.6,0.6,0.9
				c0.2,0.4,0.2,0.8,0.2,1.3C33,40.1,32.9,40.6,32.6,41.1z"/>
			<circle cx="14.1" cy="37.2" r="2.9"/>
			<circle cx="43.7" cy="37.2" r="2.9"/>
		</g>
		<g>
			<g>
				<path d="M6.6,21h0.8v-1.7h43.2V21h0.7c1,0,1.9,0.4,2.6,1v-3.5c0-1.4-1.1-2.6-2.6-2.6H6.6C5.2,16,4,17.2,4,18.6V22
					C4.7,21.4,5.6,21,6.6,21z"/>
			</g>
			<path d="M6.6,14.8h0.8v-1.7h43.2v1.7h0.7c1,0,1.9,0.4,2.6,1v-3.5c0-1.4-1.1-2.6-2.6-2.6H6.6C5.2,9.8,4,10.9,4,12.3v3.4
				C4.7,15.2,5.6,14.8,6.6,14.8z"/>
			<path d="M6.6,8.5h0.8V6.8h43.2v1.7h0.7c1,0,1.9,0.4,2.6,1V6.1c0-1.4-1.1-2.6-2.6-2.6H6.6C5.2,3.5,4,4.6,4,6.1v3.4
				C4.7,8.9,5.6,8.5,6.6,8.5z"/>
			<path d="M53.8,24.8v18.7c-0.8-0.1-1.7-0.2-2.8-0.2l0,0c-0.2,0-0.3,0-0.5,0V31.4c-4.9,0.1-5.5-4.3-5.5-5.9H13.2
				c0.1,5-4.4,5.4-5.9,5.5v13.1c4.3-0.3,5.5,2.7,5.8,4.7h28.7v2.4v0.4c0,0.2,0,0.4,0,0.5H6.6C5.2,52.1,4,51,4,49.5V24.8
				c0-1.4,1.1-2.6,2.6-2.6h44.7C52.6,22.3,53.8,23.4,53.8,24.8z"/>
		</g>
	</g>
	<g>
		<path d="M42.8,51.2c0.5,1.6,1.8,2.5,3.3,3.1c2.1,0.9,4.4,1.1,6.6,1c1.6-0.1,3.2-0.5,4.6-1.3c0.9-0.5,1.7-1,2.2-1.9
			c0.2-0.3,0.3-0.6,0.5-1c0,0.8,0.1,1.7-0.3,2.5c-0.4,0.8-1.1,1.4-1.8,1.9c-1.4,0.9-2.9,1.3-4.5,1.5c-2.2,0.3-4.5,0.1-6.6-0.6
			c-1.2-0.4-2.3-1-3.2-2c-0.5-0.6-0.8-1.3-0.8-2C42.8,52,42.8,51.6,42.8,51.2z"/>
		<path d="M59.9,54.6c0,0.5,0.1,1.1,0,1.7c-0.1,1-0.8,1.7-1.5,2.2c-1.2,0.9-2.5,1.4-3.9,1.7c-2.6,0.5-5.2,0.4-7.7-0.4
			c-1.2-0.4-2.3-1-3.2-2c-0.5-0.6-0.8-1.2-0.8-2c0-0.4,0-0.8,0-1.1c0.2,0.4,0.5,0.9,0.8,1.3c0.8,1,1.9,1.6,3.1,2
			c2,0.7,4,0.9,6.1,0.7c1.6-0.1,3.1-0.5,4.5-1.3c0.9-0.5,1.6-1,2.2-1.9C59.7,55.1,59.8,54.8,59.9,54.6z"/>
		<path d="M59.5,47.5c-0.5-0.8-1.3-1.4-2.1-1.8c-1.9-1-3.9-1.3-6.3-1.3c-0.9,0-2.3,0.2-3.6,0.6c-1.3,0.4-2.5,0.9-3.4,1.8
			c-1.4,1.3-1.5,3-0.2,4.4c0.8,0.9,1.9,1.5,3,1.9c3.1,1.1,6.3,1.1,9.4,0c1.2-0.4,2.3-1,3.1-2C60.1,50,60.2,48.7,59.5,47.5z"/>
	</g>
</g>
</svg>
