<?xml version="1.0" encoding="utf-8"?>
<!-- Generator: Adobe Illustrator 22.1.0, SVG Export Plug-In . SVG Version: 6.00 Build 0)  -->
<svg version="1.1" id="Layer_1" xmlns="http://www.w3.org/2000/svg" xmlns:xlink="http://www.w3.org/1999/xlink" x="0px" y="0px"
	 viewBox="0 0 64 64" style="enable-background:new 0 0 64 64;" xml:space="preserve">
<g>
	<g>
		<path d="M4.5,4.5h54.8V11H4.5V4.5z"/>
		<path d="M57.2,14.2H6.8v28.4H4.6v3.2h25.9V50c-1.9,0.6-3.2,2.4-3.2,4.6c0,2.7,2.1,4.8,4.8,4.8s4.8-2.1,4.8-4.8
			c0-2.1-1.4-3.9-3.2-4.6v-4.2h25.9v-3.2h-2.1V14.2H57.2z M40.9,20.1h8.3v3.2h-8.3V20.1z M40.9,26.6h8.3v3.2h-8.3V26.6z M40.9,33
			h8.3v3.2h-8.3V33z M24.9,17.6h1.6v9.2h9.2v1.6c0,5.9-4.9,10.8-10.8,10.8s-10.8-4.9-10.8-10.8S18.9,17.6,24.9,17.6L24.9,17.6z"/>
		<path d="M24.9,36c3.6,0,6.7-2.5,7.4-5.9h-9v-9c-3.4,0.7-5.9,3.8-5.9,7.4C17.4,32.6,20.8,36,24.9,36L24.9,36z"/>
	</g>
</g>
</svg>
