<svg xmlns="http://www.w3.org/2000/svg" xmlns:xlink="http://www.w3.org/1999/xlink" xml:space="preserve" version="1.1" style="shape-rendering:geometricPrecision;text-rendering:geometricPrecision;image-rendering:optimizeQuality;" viewBox="0 0 724 905" x="0px" y="0px" fill-rule="evenodd" clip-rule="evenodd"><defs><style type="text/css">
   
    .fil1 {fill:black}
    .fil0 {fill:black;fill-rule:nonzero}
   
  </style></defs><g><path class="fil0" d="M14 0l696 0 14 0 0 14 0 696 0 14 -14 0 -696 0 -14 0 0 -14 0 -696 0 -14 14 0zm682 28l-668 0 0 668 668 0 0 -668z"/><path class="fil1" d="M84 509c50,-91 127,-175 221,-251 -63,-48 -126,-76 -179,-62 -150,-201 52,-138 88,-103 54,30 106,70 155,117 66,-46 139,-90 217,-130 24,0 49,-10 73,-10 -49,32 -149,103 -245,186 85,94 161,210 228,339 0,24 11,50 11,74 -46,-70 -166,-247 -293,-364 -107,101 -193,212 -173,291 -24,105 -174,65 -103,-87z"/></g><text x="0" y="739" fill="#000000" font-size="5px" font-weight="bold" font-family="'Helvetica Neue', Helvetica, Arial-Unicode, Arial, Sans-serif">Created by EnQiu</text><text x="0" y="744" fill="#000000" font-size="5px" font-weight="bold" font-family="'Helvetica Neue', Helvetica, Arial-Unicode, Arial, Sans-serif">from the Noun Project</text></svg>