<?xml version="1.0" encoding="utf-8"?>
<!-- Generator: Adobe Illustrator 22.1.0, SVG Export Plug-In . SVG Version: 6.00 Build 0)  -->
<svg version="1.1" xmlns="http://www.w3.org/2000/svg" xmlns:xlink="http://www.w3.org/1999/xlink" x="0px" y="0px"
	 viewBox="0 0 100 100" style="enable-background:new 0 0 100 100;" xml:space="preserve">
<g id="Layer_2">
</g>
<g id="Layer_1">
	<g>
		<path d="M5273.1,2400.1v-2c0-2.8-5-4-9.7-4s-9.7,1.3-9.7,4v2c0,1.8,0.7,3.6,2,4.9l5,4.9c0.3,0.3,0.4,0.6,0.4,1v6.4
			c0,0.4,0.2,0.7,0.6,0.8l2.9,0.9c0.5,0.1,1-0.2,1-0.8v-7.2c0-0.4,0.2-0.7,0.4-1l5.1-5C5272.4,2403.7,5273.1,2401.9,5273.1,2400.1z
			 M5263.4,2400c-4.8,0-7.4-1.3-7.5-1.8l0,0c0.1-0.5,2.7-1.8,7.5-1.8s7.3,1.3,7.5,1.8C5270.7,2398.7,5268.2,2400,5263.4,2400z"/>
		<path d="M5268.4,2410.3c-0.6,0-1,0.4-1,1s0.4,1,1,1h4.3c0.6,0,1-0.4,1-1s-0.4-1-1-1H5268.4z"/>
		<path d="M5272.7,2413.7h-4.3c-0.6,0-1,0.4-1,1s0.4,1,1,1h4.3c0.6,0,1-0.4,1-1C5273.7,2414.1,5273.3,2413.7,5272.7,2413.7z"/>
		<path d="M5272.7,2417h-4.3c-0.6,0-1,0.4-1,1s0.4,1,1,1h4.3c0.6,0,1-0.4,1-1C5273.7,2417.5,5273.3,2417,5272.7,2417z"/>
	</g>
	<g>
		<path d="M28,65.4v4.2h44v-4.2c0-4.3,3.5-7.8,7.8-7.8H83v-5.3c0-4.3-3.5-7.8-7.8-7.8H24.8c-4.3,0-7.8,3.5-7.8,7.8v5.3h3.2
			C24.5,57.5,28,61,28,65.4z"/>
		<path d="M88.9,62.2h-9.1c-1.7,0-3.1,1.4-3.1,3.1v8c0,0.5-0.4,1-1,1H24.3c-0.5,0-1-0.4-1-1v-8c0-1.7-1.4-3.1-3.1-3.1h-9.1
			c-1.7,0-3.1,1.4-3.1,3.1v23c0,1.7,1.4,3.1,3.1,3.1h4.4v3.7c0,1.3,1.1,2.4,2.4,2.4h7.3c1.3,0,2.4-1.1,2.4-2.4v-3.7h45v3.7
			c0,1.3,1.1,2.4,2.4,2.4h7.3c1.3,0,2.4-1.1,2.4-2.4v-3.7h4.4c1.7,0,3.1-1.4,3.1-3.1v-23C92,63.6,90.6,62.2,88.9,62.2z"/>
		<path d="M29.7,35.2h40.7c1.8,0,3.2-1.5,3.2-3.2V5.7c0-1.8-1.5-3.2-3.2-3.2H29.7c-1.8,0-3.2,1.5-3.2,3.2V32
			C26.4,33.7,27.9,35.2,29.7,35.2z M55.2,9.3c1.6,0,2.9,1.3,2.9,2.9s-1.3,2.9-2.9,2.9c-1.6,0-2.9-1.3-2.9-2.9S53.6,9.3,55.2,9.3z
			 M37.7,25.8l8.1-11.3c0.6-0.9,2-0.9,2.6,0l4.7,6.6c0.2,0.3,0.7,0.3,0.9,0l1.1-1.5c0.6-0.9,2-0.9,2.6,0l4.5,6.3
			c0.8,1.1,0,2.6-1.3,2.6H39C37.7,28.4,36.9,26.9,37.7,25.8z"/>
	</g>
</g>
</svg>
