<?xml version="1.0" encoding="iso-8859-1"?>
<!-- Generator: Adobe Illustrator 19.0.0, SVG Export Plug-In . SVG Version: 6.00 Build 0)  -->
<svg version="1.1" id="Capa_1" xmlns="http://www.w3.org/2000/svg" xmlns:xlink="http://www.w3.org/1999/xlink" x="0px" y="0px"
	 viewBox="0 0 512 512" style="enable-background:new 0 0 512 512;" xml:space="preserve">
<g>
	<g>
		<path d="M503.649,248.931c-7.445-11.262-18.841-18.892-32.09-21.485c-13.25-2.595-26.68,0.176-37.817,7.798l-84.525,57.81
			c-7.754-11.87-21.15-19.736-36.356-19.736h-53.556c-9.067-8.861-29.363-22.7-67.679-22.7c-48.812,0-69.786,20.663-74.035,25.515
			l-16.985,17.362l-9.117-17.463L0,323.795l88.389,169.301l91.488-47.763l-9.471-18.139H336.76l154.222-110.022
			C512.998,301.465,518.561,271.491,503.649,248.931z M101.123,452.536L40.56,336.53l38.195-19.94l60.563,116.006L101.123,452.536z
			 M473.525,292.7L327.138,397.132H154.714l-39.474-75.61l24.19-24.728l0.334-0.211l0.563-0.779
			c1.58-1.674,15.403-15.126,51.299-15.126c34.715,0,46.822,14.024,48.284,15.897l3.782,6.802h69.169
			c7.358,0,13.344,5.986,13.344,13.344s-5.986,13.344-13.344,13.344h-90.281v30.061h90.281c21.023,0,38.597-15.024,42.563-34.898
			l95.291-65.172c4.439-3.039,9.794-4.14,15.07-3.109c5.279,1.033,9.821,4.074,12.787,8.561
			C484.513,274.497,482.298,286.441,473.525,292.7z"/>
	</g>
</g>
<g>
	<g>
		<path d="M377.593,18.904H162.118c-20.104,0-36.461,16.356-36.461,36.461V183.23c0,20.105,16.356,36.461,36.461,36.461h215.476
			c20.104,0,36.46-16.356,36.46-36.461V55.365C414.054,35.261,397.698,18.904,377.593,18.904z M383.993,183.23
			c-0.001,3.529-2.871,6.401-6.4,6.401H162.118c-3.529,0-6.401-2.87-6.401-6.401v-71.364h228.276V183.23z M383.993,81.806H155.717
			v-26.44c0-3.529,2.87-6.401,6.401-6.401h215.476c3.528,0,6.4,2.872,6.4,6.401V81.806z"/>
	</g>
</g>
<g>
	<g>
		<rect x="173.752" y="141.422" width="47.097" height="30.057"/>
	</g>
</g>
<g>
</g>
<g>
</g>
<g>
</g>
<g>
</g>
<g>
</g>
<g>
</g>
<g>
</g>
<g>
</g>
<g>
</g>
<g>
</g>
<g>
</g>
<g>
</g>
<g>
</g>
<g>
</g>
<g>
</g>
</svg>
