<?xml version="1.0" encoding="utf-8"?>
<!-- Generator: Adobe Illustrator 22.1.0, SVG Export Plug-In . SVG Version: 6.00 Build 0)  -->
<svg version="1.1" id="Layer_1" xmlns="http://www.w3.org/2000/svg" xmlns:xlink="http://www.w3.org/1999/xlink" x="0px" y="0px"
	 viewBox="0 0 100 100" style="enable-background:new 0 0 100 100;" xml:space="preserve">
<style type="text/css">
	.st0{fill:none;}
</style>
<g>
	<path class="st0" d="M35.6,42.6c0.3,0.3,0.6,0.4,0.8,0.4c0.1,0,0.3-0.1,0.4-0.2c1.3,4.2,3.9,8.3,7.2,10.8c1.9,1.4,4,2.3,6.2,2.3
		c2.3,0,4.4-0.9,6.3-2.4c3.2-2.5,5.7-6.6,7-10.7c0.1,0.1,0.2,0.2,0.4,0.2c0.2,0,0.5-0.1,0.7-0.3c0.6-0.5,1.2-1.7,1.4-3.2
		c0.3-1.9,0-3.6-0.7-3.9c-0.1,0-0.1,0-0.2-0.1c-0.2,0-0.5,0-0.7,0.2l0,0c0,0,0,0,0,0c0,0,0,0,0,0c0,0,0,0,0,0
		c-0.9-3.3-1.9-5.3-3.1-6.5c-0.2-0.1-0.4-0.2-0.7-0.3c0,0.5,0.5,1.2,0.6,1.9c-1.6-0.7-3-1.8-5.2-1.9c-0.5,0-1.1,0-1.6,0
		c-5.2,1.9-11-0.2-11-0.2c-6.6-0.6-7.6,6.2-7.7,7c0,0,0,0,0,0.1c0,0,0,0,0,0c-0.2-0.2-0.5-0.3-0.7-0.2c-0.1,0-0.2,0.1-0.3,0.1
		c-0.2,0.1-0.4,0.4-0.5,0.8c-0.1,0.9-0.1,1.8-0.1,2.8c0,0.1,0,0.2,0,0.3C34.5,40.9,35,42,35.6,42.6z"/>
	<path class="st0" d="M15.7,74.3c4-13.7,11.3-14.1,12.9-14.5c3.1-0.7,6.9-0.4,8.9-1c0.4,2.9,6,5.3,12.9,5.3c6.9,0,12.6-2.3,12.9-5.3
		c2,0.6,5.8,0.3,8.9,1c1.6,0.4,8.9,0.8,12.9,14.5c0.2,0.5,0.2,1.1,0.3,1.7c5-7,8-15.7,8-25c0-23.7-19.3-43-43-43s-43,19.3-43,43
		c0,9.3,3,17.9,8,25C15.4,75.4,15.5,74.8,15.7,74.3z M32.4,33.3C32.4,33.3,32.5,33.3,32.4,33.3C32.5,33.3,32.5,33.3,32.4,33.3
		L32.4,33.3c0-1.5,0.2-2.8,0.5-4.1c0.2-2.5,0.8-4.9,1.7-6.7c2.9-5.5,9.2-8.8,17.5-8.3c9.6,0.6,15.7,6.7,15.7,17.1
		c0,0.7,0,1.4-0.1,2.1c1.1,0.4,1.6,2.9,1.1,5.8c-0.5,2.6-1.6,4.7-2.7,5c-1.4,3.9-3.7,7.6-6.5,10.4c-1.7,1.7-3.5,3-5.5,3.8
		c-1.3,0.5-2.7,0.8-4.1,0.8s-2.8-0.3-4.1-0.8c-1.9-0.8-3.7-2-5.3-3.6c-2.9-2.8-5.2-6.6-6.6-10.6c-1.1-0.2-2.4-2.3-2.9-5.1
		C30.6,36.1,31.2,33.5,32.4,33.3z"/>
	<path d="M50.4,4c-25.9,0-47,21.1-47,47c0,25.9,21.1,47,47,47s47-21.1,47-47C97.4,25.1,76.3,4,50.4,4z M50.4,8c23.7,0,43,19.3,43,43
		c0,9.3-3,17.9-8,25c0-0.6-0.1-1.1-0.3-1.7c-4-13.7-11.3-14.1-12.9-14.5c-3.1-0.7-6.9-0.4-8.9-1c-0.4,2.9-6,5.3-12.9,5.3
		c-6.9,0-12.6-2.3-12.9-5.3c-2,0.6-5.8,0.3-8.9,1c-1.6,0.4-8.9,0.8-12.9,14.5c-0.2,0.5-0.2,1.1-0.3,1.7c-5-7-8-15.7-8-25
		C7.4,27.3,26.7,8,50.4,8z"/>
	<path d="M34.1,44.2c1.5,3.9,3.8,7.8,6.6,10.6c1.6,1.6,3.4,2.8,5.3,3.6c1.3,0.5,2.7,0.8,4.1,0.8c1.4,0,2.8-0.3,4.1-0.8
		c2-0.8,3.8-2.1,5.5-3.8c2.8-2.8,5.1-6.6,6.5-10.4c1.1-0.3,2.3-2.4,2.7-5c0.5-2.9,0-5.4-1.1-5.8c0-0.7,0.1-1.4,0.1-2.1
		c0-10.4-6.1-16.4-15.7-17.1c-8.4-0.6-14.7,2.8-17.5,8.3c-1,1.9-1.5,4.2-1.7,6.7c-0.3,1.3-0.5,2.7-0.5,4.1h0c0,0,0,0,0,0
		c0,0,0,0-0.1,0c-1.2,0.2-1.8,2.8-1.2,5.8C31.7,41.9,32.9,44,34.1,44.2z M34.3,36.5c0.1-0.4,0.3-0.6,0.5-0.8
		c0.1-0.1,0.2-0.1,0.3-0.1c0.2,0,0.5,0,0.7,0.2c0,0,0,0,0,0c0,0,0,0,0-0.1c0.1-0.8,1.1-7.6,7.7-7c0,0,5.8,2.1,11,0.2
		c0.6,0,1.1,0,1.6,0c2.2,0.1,3.7,1.2,5.2,1.9c-0.1-0.7-0.6-1.4-0.6-1.9c0.2,0.1,0.5,0.2,0.7,0.3c1.1,1.2,2.2,3.2,3.1,6.5
		c0,0,0,0,0,0c0,0,0,0,0,0c0,0,0,0,0,0l0,0c0.2-0.2,0.5-0.3,0.7-0.2c0.1,0,0.1,0,0.2,0.1c0.7,0.3,1,2,0.7,3.9
		c-0.3,1.5-0.8,2.7-1.4,3.2c-0.2,0.2-0.5,0.3-0.7,0.3c-0.1,0-0.3-0.1-0.4-0.2c-1.3,4.1-3.9,8.2-7,10.7c-1.9,1.5-4,2.4-6.3,2.4
		c-2.2,0-4.3-0.9-6.2-2.3c-3.2-2.5-5.8-6.7-7.2-10.8c-0.1,0.1-0.2,0.2-0.4,0.2c-0.3,0-0.6-0.1-0.8-0.4c-0.6-0.6-1.1-1.7-1.3-3.1
		c0-0.1,0-0.2,0-0.3C34.2,38.3,34.3,37.4,34.3,36.5z"/>
</g>
</svg>
